<?xml version="1.0" standalone="no"?>
<!DOCTYPE svg PUBLIC "-//W3C//DTD SVG 20010904//EN"
 "http://www.w3.org/TR/2001/REC-SVG-20010904/DTD/svg10.dtd">
<svg version="1.0" xmlns="http://www.w3.org/2000/svg"
 width="600.000000pt" height="444.000000pt" viewBox="0 0 600.000000 444.000000"
 preserveAspectRatio="xMidYMid meet">
<g transform="translate(0.000000,444.000000) scale(0.100000,-0.100000)"
fill="#000000" stroke="none">
<path d="M3426 2508 c-8 -13 -83 -163 -167 -335 -84 -172 -155 -311 -158 -308
-4 2 -7 -13 -6 -33 l0 -37 117 -3 118 -3 22 46 22 45 187 0 187 0 11 -32 c6
-17 14 -29 17 -26 3 4 -2 20 -11 37 l-16 31 -193 0 -194 0 -18 -45 -17 -45
-113 0 c-94 0 -114 3 -114 15 0 26 113 244 124 238 5 -3 6 -1 3 4 -4 6 43 112
104 237 l110 226 118 0 119 0 61 -125 c34 -69 59 -131 55 -137 -4 -6 -3 -8 3
-5 5 3 41 -58 79 -138 38 -79 72 -144 76 -145 7 0 -71 165 -202 425 l-65 130
-122 3 c-118 3 -123 2 -137 -20z"/>
<path d="M3510 2181 c-24 -50 -46 -88 -49 -86 -3 1 -7 -8 -7 -21 -2 -24 -1
-24 102 -24 77 0 104 3 104 13 0 16 -92 207 -100 207 -3 0 -26 -40 -50 -89z
m95 -13 c20 -46 39 -88 42 -94 3 -8 -24 -12 -90 -12 l-94 0 46 94 c25 52 48
94 52 94 3 0 23 -37 44 -82z"/>
</g>
</svg>
