<?xml version="1.0" standalone="no"?>
<!DOCTYPE svg PUBLIC "-//W3C//DTD SVG 20010904//EN"
 "http://www.w3.org/TR/2001/REC-SVG-20010904/DTD/svg10.dtd">
<svg version="1.0" xmlns="http://www.w3.org/2000/svg"
 width="600.000000pt" height="444.000000pt" viewBox="0 0 600.000000 444.000000"
 preserveAspectRatio="xMidYMid meet">
<g transform="translate(0.000000,444.000000) scale(0.100000,-0.100000)"
fill="#000000" stroke="none">
<path d="M2320 2511 c-11 -21 -14 -658 -4 -699 l6 -22 372 2 371 3 3 70 c3 72
-3 116 -16 114 -4 -1 -121 -1 -260 0 l-254 1 6 38 c3 20 5 40 6 45 0 4 106 7
235 7 l236 0 -3 88 -3 87 -237 3 -238 2 0 45 0 45 250 0 c138 0 253 0 256 -1
25 -3 35 156 12 179 -9 9 -105 12 -370 12 -343 0 -358 -1 -368 -19z m734 -7
c3 -9 6 -44 6 -80 l0 -64 -262 -2 -263 -3 -3 -57 -3 -58 241 0 240 0 0 -80 0
-80 -237 -2 -238 -3 0 -53 0 -53 246 1 c135 0 253 -2 262 -6 13 -5 17 -20 17
-69 0 -104 37 -95 -370 -95 l-357 0 -7 31 c-8 40 -8 652 0 673 5 14 47 16 364
16 317 0 359 -2 364 -16z"/>
</g>
</svg>
