<?xml version="1.0" standalone="no"?>
<!DOCTYPE svg PUBLIC "-//W3C//DTD SVG 20010904//EN"
 "http://www.w3.org/TR/2001/REC-SVG-20010904/DTD/svg10.dtd">
<svg version="1.0" xmlns="http://www.w3.org/2000/svg"
 width="600.000000pt" height="444.000000pt" viewBox="0 0 600.000000 444.000000"
 preserveAspectRatio="xMidYMid meet">
<g transform="translate(0.000000,444.000000) scale(0.100000,-0.100000)"
fill="#000000" stroke="none">
<path d="M1405 2517 c-3 -6 -4 -172 -3 -367 l3 -355 107 -3 c105 -3 108 -2
113 20 3 13 5 103 3 200 -2 129 0 174 8 165 36 -40 210 -235 273 -305 l74 -83
141 3 141 3 0 365 0 365 -90 3 c-148 5 -134 26 -137 -218 l-3 -210 -120 137
c-66 75 -151 172 -190 215 l-70 78 -123 0 c-89 0 -124 -3 -127 -13z m317 -79
c40 -46 86 -99 102 -118 16 -19 72 -82 125 -139 l96 -104 5 219 5 219 103 3
102 3 0 -361 0 -361 -142 3 c-112 2 -142 6 -140 16 1 8 -2 11 -7 8 -13 -8 -34
21 -25 35 4 7 3 9 -4 5 -6 -3 -76 67 -162 164 -84 93 -156 170 -162 170 -7 0
-8 -59 -4 -177 3 -97 3 -187 0 -200 -6 -22 -10 -23 -105 -23 l-99 0 0 360 0
360 119 0 119 0 74 -82z"/>
</g>
</svg>
