<?xml version="1.0" standalone="no"?>
<!DOCTYPE svg PUBLIC "-//W3C//DTD SVG 20010904//EN"
 "http://www.w3.org/TR/2001/REC-SVG-20010904/DTD/svg10.dtd">
<svg version="1.0" xmlns="http://www.w3.org/2000/svg"
 width="600.000000pt" height="444.000000pt" viewBox="0 0 600.000000 444.000000"
 preserveAspectRatio="xMidYMid meet">
<g transform="translate(0.000000,444.000000) scale(0.100000,-0.100000)"
fill="#000000" stroke="none">
<path d="M780 2519 c-90 -12 -184 -59 -216 -110 -52 -83 -40 -197 26 -260 64
-61 110 -70 458 -92 56 -4 87 -23 77 -49 -12 -31 -66 -43 -186 -42 -128 0
-176 13 -181 47 -3 21 -8 22 -113 22 l-110 0 3 -44 c3 -49 20 -87 51 -115 11
-10 18 -23 14 -29 -3 -6 -1 -7 6 -3 6 4 17 3 24 -2 51 -42 256 -68 402 -52
180 19 252 53 295 138 32 63 26 164 -13 216 -16 20 -38 43 -50 51 -41 27 -142
45 -302 55 -180 12 -191 14 -205 40 -8 16 -5 23 17 37 22 15 49 18 158 18 157
0 177 -5 192 -45 l11 -30 101 0 c68 0 102 4 107 12 20 32 -11 122 -58 165 -75
70 -289 100 -508 72z m388 -24 c29 -9 68 -25 87 -37 45 -26 85 -93 85 -141 l0
-37 -98 0 -98 0 -11 29 c-15 41 -67 53 -213 49 -105 -3 -120 -6 -153 -28 -20
-13 -31 -27 -26 -31 6 -3 11 -14 11 -25 1 -12 10 -20 22 -20 343 -23 406 -32
476 -67 112 -57 123 -242 18 -320 -62 -46 -122 -59 -290 -64 -183 -6 -278 9
-350 57 -42 28 -84 92 -73 110 3 5 1 11 -5 15 -5 3 -10 15 -10 26 0 18 8 19
105 19 96 0 105 -2 105 -19 0 -31 26 -43 115 -54 108 -13 228 2 258 32 18 18
19 23 8 45 -17 31 -39 35 -236 46 -162 9 -197 15 -251 43 -93 48 -129 156 -85
253 33 73 113 117 241 134 93 13 305 4 368 -15z"/>
</g>
</svg>
