<?xml version="1.0" standalone="no"?>
<!DOCTYPE svg PUBLIC "-//W3C//DTD SVG 20010904//EN"
 "http://www.w3.org/TR/2001/REC-SVG-20010904/DTD/svg10.dtd">
<svg version="1.0" xmlns="http://www.w3.org/2000/svg"
 width="600.000000pt" height="444.000000pt" viewBox="0 0 600.000000 444.000000"
 preserveAspectRatio="xMidYMid meet">
<g transform="translate(0.000000,444.000000) scale(0.100000,-0.100000)"
fill="#000000" stroke="none">
<path d="M5243 2969 c-325 -301 -833 -799 -833 -816 0 -7 47 -64 105 -125 58
-62 105 -116 105 -120 0 -5 -11 -8 -25 -8 -17 0 -53 26 -117 85 -51 46 -102
85 -112 85 -19 0 -555 -523 -577 -562 -6 -12 -4 -21 7 -33 20 -19 8 -28 318
264 126 119 234 217 241 219 6 1 49 -40 94 -93 46 -52 93 -97 104 -100 12 -3
93 -4 181 -3 153 3 159 4 174 26 15 22 11 27 -152 190 -91 92 -166 173 -166
179 0 7 98 117 218 245 374 399 504 542 515 566 8 18 7 26 -5 39 -15 14 -21
11 -75 -38z m61 9 c-10 -12 -113 -123 -229 -247 -191 -205 -439 -471 -507
-546 l-28 -30 175 -175 c96 -96 175 -179 175 -183 0 -10 -318 -9 -339 2 -9 6
-55 55 -102 110 -46 56 -87 100 -90 99 -6 -3 -225 -210 -476 -452 -46 -44 -83
-75 -83 -70 0 11 549 548 564 552 6 1 53 -36 105 -83 l94 -86 68 2 c38 1 69 2
69 3 0 1 -58 62 -130 136 -71 74 -129 138 -130 141 0 7 183 187 515 506 132
127 265 256 295 287 53 54 93 79 54 34z"/>
<path d="M4517 2551 l-203 -202 -32 40 c-18 22 -57 67 -88 101 l-56 60 -172 0
c-178 0 -196 -4 -196 -42 0 -11 70 -88 165 -181 l165 -162 -70 -73 -71 -73
-120 248 c-66 136 -128 256 -136 266 -14 14 -35 17 -143 17 -108 0 -129 -3
-143 -17 -8 -10 -84 -159 -169 -332 -149 -306 -153 -313 -159 -274 -10 75 -2
73 -275 73 -237 0 -244 1 -244 20 0 19 7 20 223 20 160 0 226 3 235 12 8 8 12
46 12 103 0 130 7 126 -216 125 -274 -1 -254 -3 -254 20 0 20 6 20 242 19 238
0 243 0 260 21 24 29 25 155 2 188 l-15 22 -368 0 c-318 0 -370 -2 -381 -15
-12 -14 -15 -14 -30 0 -13 11 -42 15 -122 15 -137 0 -138 -1 -139 -141 -1 -57
-4 -135 -8 -174 l-6 -69 -168 192 -169 192 -134 0 c-128 0 -134 -1 -148 -22
-8 -13 -15 -48 -15 -82 0 -32 -2 -60 -4 -62 -2 -2 -15 13 -28 33 -38 58 -98
98 -178 118 -57 14 -103 16 -248 13 -206 -5 -263 -20 -333 -89 -51 -50 -70
-97 -70 -168 1 -90 44 -162 125 -204 l30 -16 -62 -1 c-52 0 -64 -3 -77 -22
-47 -67 26 -201 135 -247 60 -26 158 -41 279 -41 137 0 225 15 299 51 51 25
69 41 95 82 l31 50 3 -69 c5 -103 18 -114 142 -114 139 0 139 -1 142 204 l3
158 126 -144 c70 -78 143 -160 163 -180 l37 -38 138 0 c126 0 140 2 156 20
l18 20 22 -20 c21 -19 34 -20 374 -20 236 0 359 4 373 11 14 8 23 8 31 0 14
-14 211 -15 237 -1 10 5 27 25 39 45 l20 35 175 0 c169 0 175 -1 181 -21 6
-18 -29 -57 -209 -238 -119 -120 -216 -225 -216 -233 0 -9 7 -21 15 -28 12
-10 19 -10 33 2 31 26 207 182 212 187 3 3 28 26 55 50 28 25 99 90 159 145
60 56 114 106 120 111 6 6 56 50 111 100 197 177 245 223 245 236 0 13 -76
102 -144 169 -36 35 -66 68 -66 72 0 4 12 8 26 8 20 0 52 -24 121 -87 83 -76
97 -85 117 -77 35 14 426 444 426 469 0 7 -7 18 -15 25 -14 11 -45 -16 -218
-189z m182 130 c-57 -66 -373 -406 -381 -409 -5 -2 -52 37 -107 87 l-98 91
-73 0 -74 0 122 -123 c133 -134 159 -165 146 -176 -33 -27 -230 -205 -334
-301 -278 -257 -551 -502 -555 -498 -2 2 96 105 219 227 l224 224 -20 41 -20
41 -190 -2 -190 -2 -21 -43 -22 -43 -105 -3 c-58 -1 -112 2 -120 7 -12 8 17
73 160 365 l175 356 125 -3 125 -2 50 -101 c28 -55 88 -178 133 -273 l84 -172
94 98 94 98 -175 173 c-96 95 -175 175 -175 177 0 3 78 5 173 5 l173 0 88
-105 c48 -58 89 -105 90 -105 5 0 325 326 367 373 50 57 66 55 18 -2z m-3499
-189 c89 -35 136 -90 142 -168 l3 -39 -107 -3 c-102 -3 -108 -2 -108 17 0 11
-12 29 -27 38 -40 26 -286 26 -326 0 -30 -19 -35 -48 -13 -66 8 -7 74 -17 148
-22 267 -19 319 -31 376 -83 39 -35 55 -77 56 -141 0 -148 -101 -216 -345
-231 -176 -11 -344 24 -402 84 -32 33 -57 91 -57 132 l0 30 105 0 c95 0 105
-2 105 -18 0 -11 9 -27 21 -38 17 -15 41 -19 147 -22 152 -4 205 8 210 49 5
44 -16 50 -190 60 -243 14 -309 33 -365 105 -22 30 -28 49 -31 104 -7 123 50
190 193 226 34 9 108 12 230 11 157 -3 187 -6 235 -25z m626 -164 c93 -105
181 -205 196 -222 l28 -31 -1 210 c0 116 0 216 1 223 0 10 25 12 108 10 l107
-3 3 -354 c2 -277 -1 -356 -10 -363 -7 -4 -71 -8 -143 -7 l-130 0 -180 203
-180 204 -5 -202 -5 -201 -85 -3 c-47 -2 -95 0 -107 3 l-23 5 0 354 c0 194 3
356 7 359 3 4 61 7 128 7 l122 0 169 -192z m1234 107 l0 -85 -260 0 -260 0 0
-52 0 -53 237 0 238 0 0 -85 0 -85 -237 -3 -238 -2 0 -50 0 -50 260 0 261 0
-3 -87 -3 -88 -365 0 -365 0 -3 363 -2 362 370 0 370 0 0 -85z m-1984 -121
c20 -8 34 -23 34 -38 0 -9 -209 -1 -282 11 -63 10 -47 25 37 37 42 5 187 -2
211 -10z m293 -121 c0 -73 -2 -85 -12 -68 -15 26 -86 97 -112 112 -17 10 -10
12 43 12 46 1 64 5 68 16 11 29 14 14 13 -72z m-316 -161 c21 -4 39 -11 39
-17 0 -17 -82 -26 -182 -22 -105 5 -126 11 -132 35 -4 15 7 17 116 14 66 -2
138 -7 159 -10z"/>
<path d="M3507 2165 l-54 -105 103 0 c120 0 115 -14 46 128 l-41 83 -54 -106z
m83 -22 c11 -25 20 -47 20 -49 0 -2 -25 -4 -55 -4 l-55 0 27 54 c15 30 30 53
35 50 4 -3 17 -25 28 -51z"/>
</g>
</svg>
