<?xml version="1.0" encoding="utf-8"?>
<svg version="1.0" xmlns="http://www.w3.org/2000/svg" width="1536px" height="1024px" viewBox="0 0 1536 1024">
 <g fill="#000000">
  <path d="M381.54 833.48 c0 -4.06 0.98 -5.54 8.74 -13.17 10.95 -10.83 137.35 -140.06 190.03 -194.46 73.23 -75.45 132.55 -136.98 132.68 -137.72 0.12 -0.37 -32.25 -33.35 -72 -73.35 -71.26 -71.63 -72.37 -72.74 -72.37 -77.54 l0 -4.92 76.06 0 76.06 0 35.57 40.74 c19.69 22.40 36.06 41.35 36.55 42.09 0.49 0.74 7.63 -5.05 17.60 -14.65 9.35 -8.74 20.43 -19.08 24.86 -23.02 13.66 -12.18 70.03 -64.49 92.68 -85.78 23.63 -22.40 37.42 -36.43 90.34 -91.94 l35.45 -37.29 60.80 0 60.80 0 0 4.68 c0 4.06 -0.98 5.54 -8.12 12.55 -13.42 13.29 -69.17 72 -156.31 164.92 -45.42 48.37 -94.28 100.43 -108.68 115.57 l-26.09 27.69 64 63.26 c63.02 62.15 64.12 63.26 64.12 68.06 l0 4.80 -64.98 0 -64.86 0 -26.46 -26.58 c-14.52 -14.52 -31.26 -30.89 -37.17 -36.31 l-10.71 -9.85 -15.14 13.29 c-29.29 25.72 -113.72 99.69 -136.86 119.88 -12.92 11.20 -27.45 24.49 -32.25 29.54 -9.11 9.48 -99.32 108.18 -108.31 118.40 l-5.17 5.78 -60.43 0 -60.43 0 0 -4.68z m164.55 -67.57 c29.54 -32.37 57.97 -63.02 63.14 -68.06 15.38 -15.51 77.54 -75.45 134.52 -129.60 51.82 -49.35 54.03 -51.32 58.58 -51.32 4.31 0 6.65 1.72 28.55 20.55 13.17 11.20 30.03 25.85 37.54 32.62 l13.78 12.06 13.91 0 14.03 0 -45.29 -45.29 c-39.88 -40 -45.17 -45.66 -45.17 -48.98 0 -3.32 1.97 -5.66 14.40 -17.23 34.95 -32.49 136.74 -128 167.14 -156.80 18.34 -17.35 42.09 -39.88 52.92 -49.97 55.02 -51.20 92.92 -86.89 92.92 -87.38 0 -0.25 -18.83 -0.49 -41.72 -0.49 l-41.85 0 -38.52 40.25 c-21.17 22.15 -63.75 66.09 -94.65 97.60 -30.77 31.51 -72.86 74.71 -93.42 96 -36.80 38.15 -37.42 38.77 -42.71 39.14 l-5.29 0.37 -34.09 -29.78 c-18.83 -16.49 -38.15 -33.35 -42.95 -37.66 l-8.86 -7.75 -17.60 0 -17.48 0 12.18 12.55 c6.77 7.02 30.40 31.63 52.55 54.89 38.77 40.62 40.25 42.34 40.25 47.02 0 3.69 -0.74 5.29 -3.57 7.63 -1.85 1.60 -30.89 28.06 -64.25 58.83 -73.97 68.18 -161.35 147.69 -241.23 219.20 -18.46 16.74 -38.40 34.83 -44.18 40.25 l-10.46 9.97 41.48 0.12 41.48 0 53.91 -58.71z m131.32 -207.63 c39.14 -35.94 72.62 -66.46 74.22 -67.82 l2.95 -2.46 -32.25 -33.85 c-17.72 -18.58 -42.95 -45.17 -56.12 -58.95 -22.89 -24 -23.88 -25.23 -23.51 -29.54 l0.37 -4.43 34.46 -0.37 34.46 -0.25 22.77 19.82 c12.55 10.95 23.88 20.80 25.23 21.91 2.71 2.22 2.95 2.46 -28.06 -32.74 l-21.91 -24.98 -58.09 0 -58.09 0 69.29 69.29 c64.25 64.25 69.17 69.42 69.17 73.35 0 4.80 7.51 -3.32 -78.77 85.66 -30.77 31.75 -54.03 56.25 -51.69 54.28 2.34 -1.97 36.31 -32.98 75.57 -68.92z m298.58 51.08 c0 -0.62 -2.09 -2.83 -4.55 -5.05 -2.58 -2.22 -29.17 -28.43 -59.08 -58.09 -48.98 -48.74 -54.52 -54.52 -54.52 -58.09 0 -3.45 4.55 -8.74 37.91 -43.94 73.60 -78.03 73.23 -77.42 11.32 -19.57 -31.51 29.42 -59.69 55.88 -62.65 58.58 l-5.54 5.17 48.37 47.88 48.25 47.88 -0.37 5.42 -0.37 5.54 -30.65 0.37 -30.65 0.25 -8.74 -7.63 c-24.62 -21.66 -25.35 -21.66 -4.31 -0.62 l22.89 23.02 46.40 0 c26.46 0 46.28 -0.49 46.28 -1.11z"/>
 </g>
</svg>
