<?xml version="1.0" standalone="no"?>
<!DOCTYPE svg PUBLIC "-//W3C//DTD SVG 20010904//EN"
 "http://www.w3.org/TR/2001/REC-SVG-20010904/DTD/svg10.dtd">
<svg version="1.0" xmlns="http://www.w3.org/2000/svg"
 width="600.000000pt" height="444.000000pt" viewBox="0 0 600.000000 444.000000"
 preserveAspectRatio="xMidYMid meet">
<g transform="translate(0.000000,444.000000) scale(0.100000,-0.100000)"
fill="#000000" stroke="none">
<path d="M5230 2925 c-41 -41 -81 -73 -88 -70 -7 3 -11 1 -8 -4 3 -4 -104
-113 -237 -242 -133 -128 -293 -283 -356 -345 l-114 -111 51 -54 c28 -30 87
-91 130 -136 l79 -83 -64 0 -65 0 -94 86 c-62 57 -97 83 -106 78 -7 -5 -53
-47 -101 -94 -49 -47 -94 -84 -100 -82 -7 2 -8 0 -4 -4 4 -5 -74 -90 -175
-191 -100 -100 -180 -184 -177 -187 3 -3 52 39 109 94 58 54 151 141 207 192
56 51 100 99 98 105 -2 7 30 46 72 87 89 85 72 87 187 -22 l77 -72 76 0 c41 0
73 4 71 9 -1 5 -40 47 -84 94 -64 66 -79 88 -70 98 9 10 8 11 -4 2 -12 -9 -23
-1 -57 37 l-42 47 72 69 c40 38 157 151 261 251 104 100 193 180 198 177 5 -3
7 0 6 6 -3 12 184 192 191 184 2 -2 -22 -32 -55 -67 -32 -34 -124 -132 -204
-216 -80 -84 -151 -162 -158 -172 -7 -11 -19 -16 -25 -13 -7 4 -9 4 -5 -1 10
-11 -11 -37 -23 -29 -5 3 -8 1 -7 -4 2 -5 -32 -49 -76 -96 l-79 -87 27 -28
c18 -19 23 -31 16 -39 -7 -9 -7 -9 1 -3 13 11 105 -84 103 -106 -1 -7 3 -10 8
-7 6 4 50 -33 99 -82 49 -49 89 -84 89 -79 0 6 -74 84 -165 175 -91 90 -164
168 -163 171 3 7 173 190 328 354 165 174 435 467 438 476 9 24 -20 2 -88 -66z
m40 22 c0 -1 -24 -25 -52 -52 l-53 -50 50 53 c46 48 55 57 55 49z m-1120
-1130 c-174 -166 -212 -198 -90 -74 74 75 140 137 145 137 6 0 -19 -28 -55
-63z"/>
<path d="M4676 2681 c-27 -28 -54 -49 -60 -48 -5 1 -10 -3 -11 -9 0 -7 -65
-78 -144 -159 l-144 -148 -31 34 c-17 19 -53 61 -80 94 -27 33 -56 66 -65 73
-17 14 -346 18 -355 3 -3 -4 73 -86 169 -182 l175 -174 -57 -61 c-97 -102
-121 -132 -52 -66 36 34 69 59 74 55 4 -4 5 -3 2 3 -4 6 5 22 18 34 14 13 25
27 25 31 0 4 -39 49 -87 100 -49 50 -87 96 -85 101 1 5 -2 7 -7 3 -13 -7 -77
53 -73 69 2 6 1 8 -3 4 -8 -7 -85 60 -85 74 0 4 72 8 161 8 l161 0 48 -52 c27
-29 46 -57 43 -62 -3 -5 -1 -6 5 -2 6 3 15 -2 21 -12 5 -10 24 -33 40 -51 17
-18 28 -37 25 -42 -3 -5 -45 27 -94 71 l-89 81 -75 -3 -76 -3 124 -130 c68
-71 122 -134 118 -139 -3 -5 0 -6 6 -2 6 3 13 2 16 -3 3 -4 -27 -37 -67 -71
-39 -35 -114 -102 -165 -149 -51 -47 -98 -85 -103 -84 -5 2 -8 0 -6 -5 4 -14
-152 -154 -164 -146 -7 4 -9 3 -6 -3 8 -12 -220 -229 -229 -220 -4 3 63 76
148 161 85 86 151 156 147 156 -4 0 -14 -6 -21 -14 -7 -7 -106 -108 -220 -224
-204 -205 -269 -287 -146 -180 58 50 260 232 373 337 28 26 122 112 210 191
87 80 183 168 212 195 l54 50 -131 138 -132 137 65 0 65 0 97 -92 98 -92 50
54 c28 30 102 112 166 181 149 161 211 230 211 235 0 13 -22 -2 -64 -45z m-23
-43 c-17 -18 -98 -107 -181 -196 -137 -150 -157 -169 -164 -158 -2 2 67 76
152 165 85 90 154 167 152 173 -1 5 1 7 6 4 5 -3 20 6 32 19 13 14 26 25 29
25 3 0 -9 -15 -26 -32z m-1194 -1184 c-18 -20 -43 -40 -54 -46 -11 -6 2 10 30
36 59 55 73 61 24 10z"/>
</g>
</svg>
