<svg xmlns="http://www.w3.org/2000/svg" viewBox="0 0 1536 1024">
  <style>
    path { fill: #0A0A0A; }
    @media (prefers-color-scheme: dark) {
      path { fill: #F0EDE8; }
    }
  </style>
  <path d="M381.54 833.48 c0 -4.06 0.98 -5.54 8.74 -13.17 10.95 -10.83 137.35 -140.06 190.03 -194.46 73.23 -75.45 132.55 -136.98 132.68 -137.72 0.12 -0.37 -32.25 -33.35 -72 -73.35 -71.26 -71.63 -72.37 -72.74 -72.37 -77.54 l0 -4.92 76.06 0 76.06 0 35.57 40.74 c19.69 22.40 36.06 41.35 36.55 42.09 0.49 0.74 7.63 -5.05 17.60 -14.65 9.35 -8.74 20.43 -19.08 24.86 -23.02 13.66 -12.18 70.03 -64.49 92.68 -85.78 23.63 -22.40 37.42 -36.43 90.34 -91.94 l35.45 -37.29 60.80 0 60.80 0 0 4.68 c0 4.06 -0.98 5.54 -8.12 12.55 -13.42 13.29 -69.17 72 -156.31 164.92 -45.42 48.37 -94.28 100.43 -108.68 115.57 l-26.09 27.69 64 63.26 c63.02 62.15 64.12 63.26 64.12 68.06 l0 4.80 -64.98 0 -64.86 0 -26.46 -26.58 c-14.52 -14.52 -31.26 -30.89 -37.17 -36.31 l-10.71 -9.85 -15.14 13.29 c-29.29 25.72 -113.72 99.69 -136.86 119.88 -12.92 11.20 -27.45 24.49 -32.25 29.54 -9.11 9.48 -99.32 108.18 -108.31 118.40 l-5.17 5.78 -60.43 0 -60.43 0 0 -4.68z"/>
</svg>
